<svg width="18" height="14" viewBox="0 0 18 14" fill="none" xmlns="http://www.w3.org/2000/svg">
<path d="M2.68471 1.33514e-05L15.3147 1.33514e-05C15.8133 -0.00070858 16.302 0.139791 16.724 0.405252C17.1461 0.670712 17.4844 1.05028 17.6997 1.50001C17.9518 2.03363 18.0488 2.62731 17.9799 3.21342C17.9109 3.79952 17.6787 4.35447 17.3097 4.81501L10.9947 12.465C10.7469 12.751 10.4405 12.9803 10.0963 13.1375C9.75208 13.2946 9.3781 13.376 8.99971 13.376C8.62132 13.376 8.24735 13.2946 7.90314 13.1375C7.55893 12.9803 7.25253 12.751 7.00471 12.465L0.689709 4.81501C0.3207 4.35447 0.0884857 3.79952 0.0195332 3.21342C-0.0494213 2.62731 0.0476627 2.03363 0.299711 1.50001C0.515024 1.05028 0.853298 0.670712 1.27538 0.405252C1.69746 0.139791 2.18609 -0.00070858 2.68471 1.33514e-05ZM15.9995 2.5L1.99951 2.5L8.99971 11L15.9995 2.5Z" fill="#1A1A1A"/>
</svg>
