<svg width="36" height="36" viewBox="0 0 36 36" fill="none" xmlns="http://www.w3.org/2000/svg">
<path d="M27.75 9H8.25002C7.00928 9 6 10.0093 6 11.25V24.75C6 25.9907 7.00928 27 8.25002 27H27.75C28.9907 27 30 25.9907 30 24.75V11.25C30 10.0093 28.9907 9 27.75 9ZM27.75 10.5C27.8519 10.5 27.9488 10.5211 28.0374 10.5581L18 19.2576L7.9625 10.5581C8.05113 10.5212 8.14807 10.5 8.24997 10.5H27.75ZM27.75 25.5H8.25002C7.8362 25.5 7.49999 25.1638 7.49999 24.75V12.1428L17.5085 20.8169C17.6499 20.9392 17.825 21 18 21C18.175 21 18.3501 20.9392 18.4915 20.8169L28.5 12.1428V24.75C28.5 25.1638 28.1638 25.5 27.75 25.5Z" fill="#1A1A1A"/>
</svg>
