<svg width="36" height="36" viewBox="0 0 36 36" fill="none" xmlns="http://www.w3.org/2000/svg">
<path d="M21.7709 14.2287C21.5108 13.9687 21.0881 13.9687 20.8281 14.2287C20.5681 14.4887 20.5681 14.9127 20.8281 15.1714C21.5829 15.9261 22.0002 16.9302 22.0002 17.9995C22.0002 20.2049 20.2054 21.9997 18 21.9997C16.9307 21.9997 15.9266 21.5837 15.1719 20.8276C14.9119 20.5676 14.4892 20.5676 14.2292 20.8276C13.9692 21.0863 13.9692 21.5104 14.2292 21.7704C15.2345 22.7784 16.5746 23.3331 18 23.3331C20.9415 23.3331 23.3335 20.941 23.3335 17.9996C23.3335 16.5741 22.7789 15.2341 21.7709 14.2287Z" fill="#1A1A1A"/>
<path d="M18.9299 12.7579C18.6272 12.7046 18.3178 12.6659 18.0005 12.6659C15.0591 12.6659 12.667 15.058 12.667 17.9994C12.667 18.3167 12.7057 18.6261 12.7603 18.9288C12.8176 19.2515 13.099 19.4795 13.415 19.4795C13.4537 19.4795 13.4923 19.4768 13.5323 19.4688C13.8937 19.4048 14.1364 19.0581 14.0724 18.6968C14.031 18.4701 14.0004 18.2394 14.0004 17.9994C14.0004 15.794 15.7951 13.9993 18.0005 13.9993C18.2405 13.9993 18.4712 14.0299 18.6979 14.0699C19.0526 14.142 19.4059 13.8913 19.4699 13.5299C19.5339 13.1686 19.2913 12.8219 18.9299 12.7579Z" fill="#1A1A1A"/>
<path d="M33.8424 17.5688C33.6917 17.3901 30.085 13.1806 25.1101 10.6032C24.7874 10.4339 24.3807 10.5619 24.2114 10.8899C24.042 11.2166 24.17 11.6192 24.4981 11.7886C28.3302 13.7727 31.3916 16.8688 32.4384 17.9995C30.849 19.7209 24.5941 25.9998 18.0005 25.9998C15.7631 25.9998 13.5083 25.4598 11.2962 24.3931C10.9682 24.2318 10.5669 24.3718 10.4069 24.7038C10.2456 25.0345 10.3856 25.4331 10.7176 25.5931C13.111 26.7492 15.5618 27.3332 18.0006 27.3332C26.2156 27.3332 33.5358 18.7942 33.8439 18.4302C34.0544 18.1821 34.0531 17.8181 33.8424 17.5688Z" fill="#1A1A1A"/>
<path d="M22.3756 9.4338C20.8582 8.92309 19.3861 8.66577 18.0007 8.66577C9.78571 8.66577 2.46542 17.2048 2.15741 17.5688C1.96271 17.7981 1.94671 18.1315 2.1201 18.3808C2.2121 18.5128 4.41618 21.6423 8.23633 24.1798C8.34965 24.2558 8.47634 24.2918 8.60435 24.2918C8.81904 24.2918 9.03105 24.1878 9.15906 23.9917C9.36306 23.6864 9.27906 23.2717 8.97236 23.069C6.16694 21.2036 4.24687 18.9515 3.52815 18.0355C5.0629 16.3688 11.3591 9.9992 18.0007 9.9992C19.2421 9.9992 20.5715 10.2339 21.9502 10.6965C22.2995 10.8219 22.6782 10.6285 22.7942 10.2778C22.9116 9.92851 22.7249 9.55118 22.3756 9.4338Z" fill="#1A1A1A"/>
<path d="M29.8043 6.19501C29.5443 5.935 29.1216 5.935 28.8615 6.19501L6.19403 28.8626C5.93402 29.1226 5.93402 29.5453 6.19403 29.8053C6.32472 29.9346 6.49536 30 6.66605 30C6.83674 30 7.00738 29.9347 7.13676 29.8053L29.8043 7.13773C30.0643 6.87772 30.0643 6.45502 29.8043 6.19501Z" fill="#1A1A1A"/>
</svg>
