<svg width="22" height="28" viewBox="0 0 22 28" fill="none" xmlns="http://www.w3.org/2000/svg">
<path d="M20.6649 21.888C20.5866 21.8371 19.9966 21.4238 19.4059 20.1736C18.321 17.8776 18.0933 14.6434 18.0933 12.3345C18.0933 12.3244 18.0931 12.3145 18.0928 12.3045C18.0809 9.25296 16.2537 6.62244 13.6389 5.44218V3.63713C13.6389 1.99911 12.3085 0.666504 10.6732 0.666504H10.4274C8.79208 0.666504 7.46166 1.99911 7.46166 3.63713V5.44208C4.83812 6.62614 3.00723 9.2701 3.00723 12.3345C3.00723 14.6434 2.77952 17.8776 1.69468 20.1736C1.104 21.4238 0.514055 21.8371 0.435617 21.888C0.105305 22.0409 -0.0575598 22.394 0.0184298 22.7519C0.0951485 23.1133 0.432961 23.3624 0.801867 23.3624H6.52827C6.56025 25.5573 8.35161 27.3332 10.5503 27.3332C12.749 27.3332 14.5404 25.5573 14.5723 23.3624H20.2987C20.6676 23.3624 21.0055 23.1133 21.0822 22.7519C21.1581 22.394 20.9953 22.0408 20.6649 21.888ZM9.02421 3.63713C9.02421 2.86208 9.65369 2.23156 10.4274 2.23156H10.6732C11.447 2.23156 12.0764 2.86208 12.0764 3.63713V4.93489C11.5833 4.83296 11.0729 4.77932 10.5501 4.77932C10.0275 4.77932 9.51718 4.83291 9.02426 4.93473V3.63713H9.02421ZM10.5503 25.7681C9.21317 25.7681 8.12249 24.6943 8.09077 23.3625H13.0098C12.9781 24.6943 11.8874 25.7681 10.5503 25.7681ZM13.6961 21.7973C13.696 21.7973 2.58234 21.7973 2.58234 21.7973C2.71749 21.5867 2.85504 21.3482 2.99176 21.0787C4.03885 19.014 4.56978 16.072 4.56978 12.3345C4.56978 9.0315 7.25254 6.34437 10.55 6.34437C13.8475 6.34437 16.5303 9.0315 16.5303 12.3371C16.5303 12.3467 16.5305 12.3563 16.5308 12.3659C16.5338 16.0884 17.0647 19.0198 18.1088 21.0787C18.2456 21.3483 18.3832 21.5867 18.5183 21.7973H13.6961Z" fill="#2C448C"/>
</svg>
