<svg width="24" height="24" viewBox="0 0 24 24" fill="none" xmlns="http://www.w3.org/2000/svg">
<path d="M6.74951 12C6.74951 11.4067 6.57357 10.8266 6.24392 10.3333C5.91428 9.83994 5.44574 9.45542 4.89756 9.22836C4.34938 9.0013 3.74619 8.94189 3.16424 9.05764C2.5823 9.1734 2.04775 9.45912 1.62819 9.87868C1.20864 10.2982 0.922913 10.8328 0.807157 11.4147C0.691402 11.9967 0.750812 12.5999 0.977874 13.1481C1.20494 13.6962 1.58945 14.1648 2.0828 14.4944C2.57615 14.8241 3.15617 15 3.74951 15C4.54489 14.9991 5.30743 14.6827 5.86985 14.1203C6.43226 13.5579 6.74862 12.7954 6.74951 12ZM2.24951 12C2.24951 11.7033 2.33749 11.4133 2.50231 11.1666C2.66713 10.92 2.9014 10.7277 3.17549 10.6142C3.44958 10.5006 3.75118 10.4709 4.04215 10.5288C4.33312 10.5867 4.60039 10.7296 4.81017 10.9393C5.01995 11.1491 5.16281 11.4164 5.22069 11.7074C5.27857 11.9983 5.24886 12.2999 5.13533 12.574C5.0218 12.8481 4.82954 13.0824 4.58287 13.2472C4.33619 13.412 4.04618 13.5 3.74951 13.5C3.35183 13.4996 2.97055 13.3414 2.68935 13.0602C2.40814 12.779 2.24996 12.3977 2.24951 12Z" fill="#1A1A1A"/>
<path d="M17.2495 12C17.2495 12.5933 17.4255 13.1734 17.7551 13.6667C18.0847 14.1601 18.5533 14.5446 19.1015 14.7716C19.6496 14.9987 20.2528 15.0581 20.8348 14.9424C21.4167 14.8266 21.9513 14.5409 22.3708 14.1213C22.7904 13.7018 23.0761 13.1672 23.1919 12.5853C23.3076 12.0033 23.2482 11.4001 23.0212 10.8519C22.7941 10.3038 22.4096 9.83523 21.9162 9.50559C21.4229 9.17594 20.8429 9 20.2495 9C19.4541 9.00089 18.6916 9.31725 18.1292 9.87966C17.5668 10.4421 17.2504 11.2046 17.2495 12ZM21.7495 12C21.7495 12.2967 21.6615 12.5867 21.4967 12.8334C21.3319 13.08 21.0976 13.2723 20.8235 13.3858C20.5495 13.4993 20.2478 13.5291 19.9569 13.4712C19.6659 13.4133 19.3986 13.2704 19.1889 13.0607C18.9791 12.8509 18.8362 12.5836 18.7783 12.2926C18.7205 12.0017 18.7502 11.7001 18.8637 11.426C18.9772 11.1519 19.1695 10.9176 19.4162 10.7528C19.6628 10.588 19.9528 10.5 20.2495 10.5C20.6472 10.5004 21.0285 10.6586 21.3097 10.9398C21.5909 11.221 21.7491 11.6023 21.7495 12Z" fill="#1A1A1A"/>
<path d="M8.99951 12C8.99951 12.5933 9.17546 13.1734 9.5051 13.6667C9.83475 14.1601 10.3033 14.5446 10.8515 14.7716C11.3996 14.9987 12.0028 15.0581 12.5848 14.9424C13.1667 14.8266 13.7013 14.5409 14.1208 14.1213C14.5404 13.7018 14.8261 13.1672 14.9419 12.5853C15.0576 12.0033 14.9982 11.4001 14.7712 10.8519C14.5441 10.3038 14.1596 9.83523 13.6662 9.50559C13.1729 9.17594 12.5929 9 11.9995 9C11.2041 9.00089 10.4416 9.31725 9.87918 9.87966C9.31676 10.4421 9.00041 11.2046 8.99951 12ZM13.4995 12C13.4995 12.2967 13.4115 12.5867 13.2467 12.8334C13.0819 13.08 12.8476 13.2723 12.5735 13.3858C12.2994 13.4993 11.9978 13.5291 11.7069 13.4712C11.4159 13.4133 11.1486 13.2704 10.9389 13.0607C10.7291 12.8509 10.5862 12.5836 10.5283 12.2926C10.4705 12.0017 10.5002 11.7001 10.6137 11.426C10.7272 11.1519 10.9195 10.9176 11.1662 10.7528C11.4128 10.588 11.7028 10.5 11.9995 10.5C12.3972 10.5004 12.7785 10.6586 13.0597 10.9398C13.3409 11.221 13.4991 11.6023 13.4995 12Z" fill="#1A1A1A"/>
</svg>
