<svg width="36" height="36" viewBox="0 0 36 36" fill="none" xmlns="http://www.w3.org/2000/svg">
<path d="M24.6094 15.1875V12.7031C24.6094 9.00698 21.6024 6 17.9062 6C14.2101 6 11.2031 9.00698 11.2031 12.7031V15.1875H9V21.0938C9 26.0047 12.9953 30 17.9062 30C22.8172 30 26.8125 26.0047 26.8125 21.0938V15.1875H24.6094ZM12.6094 12.7031C12.6094 9.78239 14.9855 7.40625 17.9062 7.40625C20.827 7.40625 23.2031 9.78239 23.2031 12.7031V15.1875H12.6094V12.7031ZM25.4062 21.0938C25.4062 25.2292 22.0418 28.5938 17.9062 28.5938C13.7707 28.5938 10.4062 25.2292 10.4062 21.0938V16.5938H25.4062V21.0938Z" fill="#1A1A1A"/>
<path d="M17.2031 23.5275V25.7187H18.6094V23.5275C19.6903 23.2207 20.4844 22.2248 20.4844 21.0469C20.4844 19.6253 19.3278 18.4688 17.9063 18.4688C16.4847 18.4688 15.3281 19.6253 15.3281 21.0469C15.3281 22.2248 16.1222 23.2207 17.2031 23.5275ZM17.9063 19.875C18.5524 19.875 19.0781 20.4007 19.0781 21.0469C19.0781 21.693 18.5524 22.2187 17.9063 22.2187C17.2601 22.2187 16.7344 21.693 16.7344 21.0469C16.7344 20.4007 17.2601 19.875 17.9063 19.875Z" fill="#1A1A1A"/>
</svg>
