<svg width="18" height="14" viewBox="0 0 18 14" fill="none" xmlns="http://www.w3.org/2000/svg">
<path d="M15.3153 14H2.68529C2.18667 14.0007 1.69804 13.8602 1.27596 13.5947C0.853875 13.3293 0.5156 12.9497 0.300287 12.5C0.0482379 11.9664 -0.0488408 11.3727 0.0201126 10.7866C0.0890659 10.2005 0.321278 9.64553 0.690287 9.18499L7.00529 1.53498C7.25311 1.24904 7.55951 1.01971 7.90372 0.862538C8.24792 0.705366 8.6219 0.624023 9.00029 0.624023C9.37868 0.624023 9.75265 0.705366 10.0969 0.862538C10.4411 1.01971 10.7475 1.24904 10.9953 1.53498L17.3103 9.18499C17.6793 9.64553 17.9115 10.2005 17.9805 10.7866C18.0494 11.3727 17.9523 11.9664 17.7003 12.5C17.485 12.9497 17.1467 13.3293 16.7246 13.5947C16.3025 13.8602 15.8139 14.0007 15.3153 14ZM2.00049 11.5H16.0005L9.00049 3L2.00049 11.5Z" fill="#1A1A1A"/>
</svg>
