<svg width="36" height="36" viewBox="0 0 36 36" fill="none" xmlns="http://www.w3.org/2000/svg">
<path d="M17.8607 17.5609C19.449 17.5609 20.8241 16.9913 21.948 15.8674C23.0716 14.7437 23.6414 13.3687 23.6414 11.7803C23.6414 10.1924 23.0717 8.81726 21.9478 7.69318C20.8239 6.56964 19.4488 6 17.8607 6C16.2723 6 14.8973 6.56964 13.7736 7.69336C12.6499 8.81708 12.0801 10.1922 12.0801 11.7803C12.0801 13.3687 12.6499 14.7438 13.7736 15.8676C14.8977 16.9911 16.2728 17.5609 17.8607 17.5609ZM14.7683 8.68781C15.6305 7.82556 16.642 7.40643 17.8607 7.40643C19.0793 7.40643 20.091 7.82556 20.9534 8.68781C21.8156 9.55023 22.2349 10.5619 22.2349 11.7803C22.2349 12.999 21.8156 14.0105 20.9534 14.8729C20.091 15.7354 19.0793 16.1545 17.8607 16.1545C16.6423 16.1545 15.6309 15.7352 14.7683 14.8729C13.9058 14.0107 13.4865 12.999 13.4865 11.7803C13.4865 10.5619 13.9058 9.55023 14.7683 8.68781Z" fill="#1A1A1A"/>
<path d="M27.9748 24.4548C27.9424 23.9871 27.8769 23.477 27.7804 22.9383C27.683 22.3956 27.5575 21.8825 27.4074 21.4136C27.2521 20.9289 27.0414 20.4503 26.7804 19.9916C26.51 19.5155 26.1921 19.101 25.8354 18.7598C25.4624 18.403 25.0058 18.116 24.4777 17.9067C23.9514 17.6985 23.3683 17.5931 22.7444 17.5931C22.4994 17.5931 22.2625 17.6936 21.8049 17.9915C21.5233 18.1752 21.1939 18.3876 20.8262 18.6225C20.5118 18.8228 20.0859 19.0105 19.5598 19.1804C19.0466 19.3465 18.5255 19.4307 18.0109 19.4307C17.4968 19.4307 16.9757 19.3465 16.4621 19.1804C15.9365 19.0107 15.5105 18.823 15.1966 18.6227C14.8324 18.39 14.5028 18.1776 14.217 17.9913C13.7598 17.6934 13.5228 17.5929 13.2778 17.5929C12.6538 17.5929 12.0708 17.6985 11.5447 17.9069C11.017 18.1158 10.5602 18.4028 10.1868 18.76C9.83014 19.1013 9.51227 19.5157 9.24201 19.9916C8.98145 20.4503 8.77051 20.9287 8.61524 21.4138C8.46527 21.8827 8.33984 22.3956 8.24243 22.9383C8.14575 23.4763 8.08038 23.9866 8.04797 24.4553C8.01611 24.9136 8 25.3906 8 25.8726C8 27.1254 8.39826 28.1396 9.1836 28.8876C9.95923 29.6257 10.9854 29.9999 12.2336 29.9999H23.7898C25.0376 29.9999 26.0638 29.6257 26.8396 28.8876C27.6251 28.1401 28.0234 27.1256 28.0234 25.8724C28.0232 25.3888 28.0069 24.9118 27.9748 24.4548ZM25.8698 27.8686C25.3573 28.3564 24.6769 28.5935 23.7896 28.5935H12.2336C11.3461 28.5935 10.6657 28.3564 10.1533 27.8688C9.6507 27.3903 9.40644 26.7372 9.40644 25.8726C9.40644 25.4229 9.42127 24.9788 9.45093 24.5526C9.47986 24.1343 9.539 23.6749 9.62671 23.1868C9.71332 22.7047 9.82355 22.2522 9.95465 21.8426C10.0804 21.4498 10.252 21.0609 10.4648 20.6863C10.6679 20.3292 10.9015 20.0229 11.1593 19.7761C11.4005 19.5452 11.7044 19.3562 12.0626 19.2145C12.3938 19.0834 12.7661 19.0116 13.1702 19.0008C13.2194 19.027 13.3071 19.077 13.4492 19.1696C13.7384 19.358 14.0716 19.573 14.44 19.8083C14.8553 20.0731 15.3903 20.3122 16.0296 20.5186C16.6831 20.7299 17.3496 20.8372 18.0111 20.8372C18.6727 20.8372 19.3394 20.7299 19.9925 20.5187C20.6323 20.312 21.1671 20.0731 21.583 19.8079C21.96 19.567 22.2839 19.3582 22.573 19.1696C22.7151 19.0771 22.8028 19.027 22.8521 19.0008C23.2564 19.0116 23.6286 19.0834 23.9601 19.2145C24.318 19.3562 24.622 19.5453 24.8631 19.7761C25.1209 20.0227 25.3546 20.329 25.5577 20.6865C25.7706 21.0609 25.9424 21.45 26.068 21.8424C26.1993 22.2526 26.3097 22.7048 26.3961 23.1866C26.4836 23.6757 26.5429 24.1353 26.5719 24.5527V24.5531C26.6017 24.9777 26.6167 25.4216 26.6169 25.8726C26.6167 26.7374 26.3725 27.3903 25.8698 27.8686Z" fill="#1A1A1A"/>
</svg>
