<svg width="36" height="36" viewBox="0 0 36 36" fill="none" xmlns="http://www.w3.org/2000/svg">
<path d="M33.8815 17.9548C33.6295 17.5881 27.5734 9 17.9999 9C9.78512 9 2.46499 17.5388 2.15699 17.9028C1.94767 18.1508 1.94767 18.5148 2.15699 18.7642C2.46499 19.1282 9.78512 27.667 17.9999 27.667C26.2148 27.667 33.5348 19.1282 33.8428 18.7642C34.0362 18.5348 34.0535 18.2028 33.8815 17.9548ZM17.9999 26.3337C11.4145 26.3337 5.15304 20.0536 3.56239 18.3335C5.15041 16.6122 11.4052 10.3334 17.9999 10.3334C25.7054 10.3334 31.1442 16.6042 32.4722 18.2975C30.9388 19.9629 24.6414 26.3337 17.9999 26.3337Z" fill="#1A1A1A"/>
<path d="M17.9994 13.0001C15.0581 13.0001 12.666 15.3922 12.666 18.3335C12.666 21.2749 15.0581 23.6669 17.9994 23.6669C20.9408 23.6669 23.3328 21.2749 23.3328 18.3335C23.3328 15.3922 20.9408 13.0001 17.9994 13.0001ZM17.9994 22.3337C15.7941 22.3337 13.9994 20.5389 13.9994 18.3336C13.9994 16.1282 15.7941 14.3335 17.9994 14.3335C20.2048 14.3335 21.9995 16.1282 21.9995 18.3336C21.9995 20.5389 20.2048 22.3337 17.9994 22.3337Z" fill="#1A1A1A"/>
</svg>
